# xmcd CD database file
#
# Track frame offsets:
#	183
#	16635
#	31960
#	46800
#	61975
#	79245
#	96340
#	112525
#	127660
#	144083
#	161360
#
# Disc length: 2321 seconds
#
# Revision: 2
# Processed by: cddbd v1.4PL0 Copyright (c) Steve Scherf et al.
# Submitted via: CDex 1.50Beta7
#
DISCID=70090f0b
DTITLE=Daniela Mercury - Daniela Mercury
DYEAR=1991
DGENRE=Axé
TTITLE0=Swing Da Cor
TTITLE1=Ninguém Atura
TTITLE2=Milagres
TTITLE3=Todo Canto Alegre
TTITLE4=Geléia Geral
TTITLE5=Menino do pelô
TTITLE6=Todo Reggae
TTITLE7=Vida  
TTITLE8=Tudo De Novo
TTITLE9=Doce esperança
TTITLE10=Maravilhê
EXTD=YEAR: 1991
EXTT0=
EXTT1=
EXTT2=
EXTT3=
EXTT4=
EXTT5=
EXTT6=
EXTT7=
EXTT8=
EXTT9=
EXTT10=
PLAYORDER=
